<svg xmlns="http://www.w3.org/2000/svg" width="800" height="800" viewBox="0 0 32 32" xml:space="preserve"><path d="M27 9v5c0 .55-.45 1-1 1H6.74L2.96 27.29c-.13.43-.53.71-.96.71-.05 0-.1 0-.15-.01A.99.99 0 0 1 1 27V5c0-.55.45-1 1-1h7c.31 0 .61.15.8.4L12.5 8H26c.55 0 1 .45 1 1" fill="#FE9803"/><path fill="none" stroke="#231F20" stroke-linecap="round" stroke-linejoin="round" stroke-miterlimit="10" stroke-width="2" d="M26 27H2"/><path d="m30.96 14.29-4 13c-.13.42-.52.71-.96.71H2c-.32 0-.62-.15-.8-.41a.99.99 0 0 1-.16-.88l4-13c.13-.42.52-.71.96-.71h24c.32 0 .62.15.8.41.19.25.25.58.16.88" fill="#FFC10A"/></svg>
